<svg viewBox="0 0 75 75" fill="none" xmlns="http://www.w3.org/2000/svg">
<path d="M55 2.5C64.665 2.5 72.5 10.335 72.5 20C72.5 20.6767 72.4595 21.3443 72.3848 22.001H50.251C50.251 22.5589 50.3763 23.1115 50.6211 23.627C50.8661 24.1426 51.226 24.6112 51.6787 25.0059C52.1314 25.4005 52.6683 25.7142 53.2598 25.9277C53.8511 26.1413 54.485 26.2509 55.125 26.251C55.7652 26.251 56.3997 26.1413 56.9912 25.9277C57.5826 25.7142 58.1196 25.4005 58.5723 25.0059C59.025 24.6112 59.3849 24.1426 59.6299 23.627C59.6355 23.6151 59.64 23.6027 59.6455 23.5908L70.8486 27.4258C68.0551 33.3776 62.0098 37.5 55 37.5C45.335 37.5 37.5 29.665 37.5 20C37.5 10.335 45.335 2.5 55 2.5ZM55.126 13.25C54.4858 13.25 53.8512 13.3666 53.2598 13.5928C52.6684 13.8189 52.1313 14.1506 51.6787 14.5684C51.226 14.9862 50.8661 15.4824 50.6211 16.0283C50.3763 16.5741 50.251 17.1592 50.251 17.75H60C60 17.1592 59.8747 16.5741 59.6299 16.0283C59.3849 15.4824 59.025 14.9862 58.5723 14.5684C58.1196 14.1506 57.5826 13.8189 56.9912 13.5928C56.3999 13.3667 55.766 13.2501 55.126 13.25Z" fill="white"/>
<path d="M16.751 42.7498C16.7698 42.7178 18.9027 39.1248 24.876 39.1248C25.6347 39.1249 26.3733 39.259 27.085 39.493C28.7255 40.2202 30.2327 41.1926 31.5615 42.3631C33.2256 43.9414 34.4838 45.7086 35.1328 46.7049C36.6376 49.2888 37.5 52.2931 37.5 55.4988C37.4999 63.9644 31.4887 71.025 23.502 72.6473V61.2488C23.502 58.7639 21.4868 56.7494 19.002 56.7488C18.182 56.7488 17.413 56.9692 16.751 57.3524V72.9988H9.86816C5.79895 72.9987 2.50023 69.6999 2.5 65.6307V55.4988C2.5 46.9442 8.63859 39.8248 16.751 38.3016V42.7498Z" fill="white"/>
<path d="M75 56.25C75 66.6053 66.6053 75 56.25 75H21.5C31.8553 75 40.25 66.6053 40.25 56.25C40.25 47.4134 47.4134 40.25 56.25 40.25C66.6053 40.25 75 31.8553 75 21.5V56.25ZM57 49.25C54.9289 49.25 53.25 50.9289 53.25 53V60.5C53.25 62.5711 54.9289 64.25 57 64.25C59.0708 64.2497 60.75 62.5709 60.75 60.5V53C60.75 50.9291 59.0708 49.2503 57 49.25ZM53.5 0C45.0642 2.19776e-07 37.9294 5.57085 35.5742 13.2344L18.75 23.75H33.9521C31.8525 30.1377 25.8403 34.75 18.75 34.75C8.39466 34.75 0 43.1447 0 53.5V23.75L16 13.75H0.674805C2.86298 5.82213 10.1262 0 18.75 0H53.5Z" fill="white"/>
</svg>