<svg width="20" height="20" viewBox="0 0 20 20" fill="none" xmlns="http://www.w3.org/2000/svg">
<path d="M6.2168 3.30842C6.62481 2.89776 7.28632 2.89776 7.69434 3.30842C8.10185 3.71899 8.10187 4.38419 7.69434 4.79475L3.51562 8.99982H19C19.5522 8.99982 19.9999 9.44762 20 9.99982C20 10.5521 19.5523 10.9998 19 10.9998H3.51562L7.69434 15.2049C8.10215 15.6155 8.10222 16.2816 7.69434 16.6922C7.28641 17.1028 6.62483 17.1026 6.2168 16.6922L0.306641 10.744C0.281149 10.7183 0.256683 10.6914 0.234375 10.6639C0.146977 10.556 0.0863091 10.4337 0.0478516 10.3065C0.0358944 10.2693 0.0261356 10.2311 0.0185547 10.1922C0.0161118 10.1789 0.0146273 10.1655 0.0126953 10.1522C0.00510319 10.1025 0 10.0516 0 9.99982C9.22293e-06 9.94835 0.00420961 9.89783 0.0117188 9.84846C0.0138305 9.83378 0.0158266 9.8191 0.0185547 9.80451C0.0258688 9.76759 0.0356163 9.73146 0.046875 9.69611C0.0852438 9.56798 0.146427 9.44536 0.234375 9.33674C0.256738 9.30913 0.281073 9.28239 0.306641 9.25666L6.2168 3.30842Z" fill="#F0F0F0"/>
</svg>
