<svg width="16" height="20" viewBox="0 0 16 20" fill="none" xmlns="http://www.w3.org/2000/svg">
<path d="M9.73145 18C9.64438 18.1506 9.53954 18.2905 9.41602 18.4141C9.2303 18.5998 9.00925 18.7471 8.7666 18.8477C8.52413 18.948 8.26438 19 8.00195 19C7.73931 19 7.47898 18.9482 7.23633 18.8477C6.99375 18.7472 6.77357 18.5997 6.58789 18.4141C6.46437 18.2905 6.35954 18.1506 6.27246 18H9.73145ZM8.00195 2.92969L8.83691 3.07031C11.2009 3.46724 13.002 5.52402 13.002 8V11.5C13.002 12.7586 13.595 13.9438 14.6016 14.6992V14.7002L15.001 15H1.00195L1.40137 14.7012L1.40234 14.7002C2.40935 13.9448 3.00195 12.7589 3.00195 11.5V8C3.00195 5.52367 4.80374 3.46693 7.16797 3.07031L8.00195 2.93066V2.92969Z" stroke="currentColor" stroke-width="2"/>
</svg>
