<svg width="20" height="20" viewBox="0 0 20 20" fill="none" xmlns="http://www.w3.org/2000/svg">
<path d="M11.7297 18C11.6427 18.1506 11.5378 18.2905 11.4143 18.4141C11.2286 18.5998 11.0075 18.7471 10.7649 18.8477C10.5224 18.948 10.2627 19 10.0002 19C9.7376 19 9.47727 18.9482 9.23462 18.8477C8.99204 18.7472 8.77186 18.5997 8.58618 18.4141C8.46266 18.2905 8.35783 18.1506 8.27075 18H11.7297ZM10.0002 2.92969L10.8352 3.07031C13.1992 3.46724 15.0002 5.52402 15.0002 8V11.5C15.0002 12.7586 15.5933 13.9438 16.5999 14.6992V14.7002L16.9993 15H3.00024L3.39966 14.7012L3.40063 14.7002C4.40764 13.9448 5.00024 12.7589 5.00024 11.5V8C5.00024 5.52367 6.80203 3.46693 9.16626 3.07031L10.0002 2.93066V2.92969Z" stroke="#F0F0F0" stroke-width="2"/>
</svg>
