<svg width="20" height="20" viewBox="0 0 20 20" fill="none" xmlns="http://www.w3.org/2000/svg">
<path d="M14.7207 5.27934C15.0931 5.65179 15.0931 6.25565 14.7207 6.6281L11.3488 10L14.7207 13.3719C15.0931 13.7444 15.0931 14.3482 14.7207 14.7207C14.3482 15.0931 13.7444 15.0931 13.3719 14.7207L10 11.3488L6.6281 14.7207C6.25565 15.0931 5.65179 15.0931 5.27934 14.7207C4.90689 14.3482 4.90689 13.7444 5.27934 13.3719L8.65124 10L5.27934 6.6281C4.90689 6.25565 4.90689 5.65179 5.27934 5.27934C5.65179 4.90689 6.25565 4.90689 6.6281 5.27934L10 8.65124L13.3719 5.27934C13.7444 4.90689 14.3482 4.90689 14.7207 5.27934Z" fill="#F0F0F0"/>
</svg>
