<svg width="20" height="20" viewBox="0 0 20 20" fill="none" xmlns="http://www.w3.org/2000/svg">
<path d="M14.4609 6.25781C14.8129 5.91346 15.3843 5.91358 15.7363 6.25781C16.0882 6.6021 16.0879 7.16044 15.7363 7.50488L9.36328 13.7412C9.34142 13.7626 9.31836 13.783 9.29492 13.8018C9.24769 13.8395 9.1969 13.8725 9.14453 13.8994C8.83054 14.0607 8.4394 14.0278 8.15625 13.8018L8.08789 13.7412L4.26367 9.99902C3.91219 9.65457 3.91184 9.09619 4.26367 8.75195C4.61549 8.4079 5.18609 8.40818 5.53809 8.75195L8.72461 11.8701L14.4609 6.25781Z" fill="currentColor"/>
<path fill-rule="evenodd" clip-rule="evenodd" d="M17 0C18.6569 0 20 1.34315 20 3V17C20 18.6051 18.7394 19.9158 17.1543 19.9961L17 20H3L2.8457 19.9961C1.31166 19.9184 0.0816253 18.6883 0.00390625 17.1543L0 17V3C0 1.34315 1.34315 6.44255e-08 3 0H17ZM3 2C2.44771 2 2 2.44772 2 3V17C2 17.5523 2.44772 18 3 18H17C17.5523 18 18 17.5523 18 17V3C18 2.44771 17.5523 2 17 2H3Z" fill="currentColor"/>
</svg>
