<svg width="20" height="20" viewBox="0 0 20 20" fill="none" xmlns="http://www.w3.org/2000/svg">
<path d="M15 10.0179C15.5523 10.0179 16 10.4666 16 11.0201C16 11.5737 15.5523 12.0224 15 12.0224H10C9.44772 12.0224 9 11.5737 9 11.0201C9 10.4666 9.44772 10.0179 10 10.0179H15Z" fill="#F0F0F0"/>
<path d="M15 6.00895C15.5523 6.00895 16 6.45767 16 7.01119C16 7.56471 15.5523 8.01342 15 8.01342H5C4.44772 8.01342 4 7.56471 4 7.01119C4 6.45767 4.44772 6.00895 5 6.00895H15Z" fill="#F0F0F0"/>
<path fill-rule="evenodd" clip-rule="evenodd" d="M17 2C18.6569 2 20 3.34615 20 5.00671V16.0313C20 18.6364 16.9158 19.9361 15.0586 18.2276L14.8828 18.0524L13.8896 16.9866C13.3223 16.3773 12.5278 16.0313 11.6963 16.0313H3L2.8457 16.0274C1.31166 15.9495 0.0816253 14.7167 0.00390625 13.1793L0 13.0246V5.00671C1.28853e-07 3.34615 1.34315 2 3 2H17ZM3 4.00447C2.44772 4.00447 2 4.45319 2 5.00671V13.0246C2 13.5781 2.44772 14.0268 3 14.0268H11.6963C13.0822 14.0268 14.4059 14.6038 15.3516 15.6193L16.3447 16.6851C16.9369 17.321 18 16.9012 18 16.0313V5.00671C18 4.45319 17.5523 4.00447 17 4.00447H3Z" fill="#F0F0F0"/>
</svg>
