<svg width="20" height="20" viewBox="0 0 20 20" fill="none" xmlns="http://www.w3.org/2000/svg">
<path fill-rule="evenodd" clip-rule="evenodd" d="M9.99985 7.00043C11.6567 7.00043 12.9999 8.34357 12.9999 10.0004C12.9999 11.6573 11.6567 13.0004 9.99985 13.0004C8.343 13.0004 6.99985 11.6573 6.99985 10.0004C6.99985 8.34357 8.343 7.00043 9.99985 7.00043ZM9.99985 9.00043C9.44757 9.00043 8.99985 9.44814 8.99985 10.0004C8.99985 10.5527 9.44757 11.0004 9.99985 11.0004C10.5521 11.0004 10.9999 10.5527 10.9999 10.0004C10.9999 9.44814 10.5521 9.00043 9.99985 9.00043Z" fill="currentColor"/>
<path fill-rule="evenodd" clip-rule="evenodd" d="M9.99985 3.00043C16.2581 3.00043 18.9524 7.28686 19.7596 8.95844C20.0797 9.62138 20.0797 10.3795 19.7596 11.0424C18.9524 12.714 16.2581 17.0004 9.99985 17.0004C3.7416 17.0004 1.04726 12.714 0.240088 11.0424C-0.0800285 10.3795 -0.08003 9.62138 0.240088 8.95844C1.04726 7.28686 3.74159 3.00043 9.99985 3.00043ZM9.99985 5.00043C4.89299 5.00043 2.73426 8.43637 2.06626 9.81976C2.0093 9.93783 2.0093 10.063 2.06626 10.1811C2.73427 11.5645 4.89299 15.0004 9.99985 15.0004C15.1067 15.0004 17.2654 11.5645 17.9334 10.1811C17.9904 10.063 17.9904 9.93783 17.9334 9.81976C17.2654 8.43637 15.1067 5.00043 9.99985 5.00043Z" fill="currentColor"/>
</svg>
