<svg width="20" height="20" viewBox="0 0 20 20" fill="none" xmlns="http://www.w3.org/2000/svg">
<path fill-rule="evenodd" clip-rule="evenodd" d="M10.0013 7C11.6927 7.00025 13.0642 8.3433 13.0642 10C13.0642 11.6567 11.6927 12.9998 10.0013 13C8.30977 13 6.93848 11.6569 6.93848 10C6.93848 8.34315 8.30977 7 10.0013 7ZM10.0013 9C9.43749 9 8.98039 9.44772 8.98039 10C8.98039 10.5523 9.43749 11 10.0013 11C10.565 10.9998 11.0223 10.5521 11.0223 10C11.0223 9.44787 10.565 9.00025 10.0013 9Z" fill="#F0F0F0"/>
<path fill-rule="evenodd" clip-rule="evenodd" d="M12.0423 0C12.6061 0 13.0632 0.447715 13.0632 1V3.07227C13.0635 3.84168 13.9142 4.32197 14.5946 3.9375L16.4272 2.90234C16.9154 2.62643 17.5391 2.79048 17.821 3.26855L19.8629 6.73145C20.145 7.20984 19.9776 7.82159 19.489 8.09766L17.6565 9.13281C16.9759 9.51761 16.9761 10.4802 17.6565 10.8652L19.49 11.9023C19.9781 12.1786 20.1448 12.7904 19.8629 13.2686L17.821 16.7324C17.5567 17.1806 16.9918 17.3531 16.5199 17.1455L16.4272 17.0986L14.5946 16.0625C13.9141 15.6781 13.0632 16.1591 13.0632 16.9287V19C13.0632 19.5523 12.6061 20 12.0423 20H7.95844C7.39489 19.9996 6.93748 19.5521 6.93748 19V16.9277C6.93748 16.1579 6.08669 15.6766 5.40605 16.0615L3.57352 17.0977C3.08527 17.3735 2.46057 17.2096 2.17868 16.7314L0.136769 13.2686C-0.145021 12.7904 0.0226754 12.1786 0.510654 11.9023L2.34219 10.8662C2.98005 10.5053 3.01989 9.63717 2.46183 9.21289L2.34219 9.13379L0.510654 8.09863C0.0226598 7.82242 -0.144978 7.21058 0.136769 6.73242L2.17868 3.26855C2.46052 2.79039 3.08524 2.6265 3.57352 2.90234L5.40705 3.93848C6.04505 4.2987 6.83256 3.89838 6.92851 3.21289L6.93748 3.07227V1C6.93748 0.447936 7.39489 0.000358254 7.95844 0H12.0423ZM8.97939 3.07227C8.97923 5.38128 6.42794 6.82408 4.38609 5.66992L3.43692 5.13379L2.41497 6.86621L3.36314 7.40234C5.40454 8.55704 5.40451 11.4428 3.36314 12.5977L2.41497 13.1328L3.43593 14.8652L4.3851 14.3291C6.42701 13.1744 8.97939 14.6184 8.97939 16.9277V18H11.0213V16.9287C11.0213 14.6916 13.4172 13.2669 15.4232 14.2295L15.6166 14.3301L16.5638 14.8652L17.5837 13.1338L16.6356 12.5977C14.5937 11.4426 14.5943 8.5547 16.6365 7.40039L17.5837 6.86426L16.5638 5.13379L15.6156 5.66992C13.5739 6.82403 11.0216 5.3812 11.0213 3.07227V2H8.97939V3.07227Z" fill="#F0F0F0"/>
</svg>
