<svg width="20" height="20" viewBox="0 0 20 20" fill="none" xmlns="http://www.w3.org/2000/svg">
<path d="M14.6361 5.3639C15.0438 5.77157 15.0438 6.43253 14.6361 6.84019C14.2284 7.2475 13.5674 7.24774 13.1598 6.84019C12.7523 6.43265 12.7525 5.7716 13.1598 5.3639C13.5675 4.95623 14.2284 4.95623 14.6361 5.3639Z" fill="currentColor"/>
<path fill-rule="evenodd" clip-rule="evenodd" d="M17.7235 0.00873677C19.0215 -0.108933 20.1089 0.978474 19.9913 2.27652L19.4002 8.77278C19.3559 9.25901 19.1428 9.71496 18.7975 10.0602L9.46908 19.3887C8.65371 20.2037 7.3317 20.2039 6.51649 19.3887L0.61132 13.4835C-0.203893 12.6683 -0.203654 11.3463 0.61132 10.5309L9.93979 1.20246C10.285 0.857209 10.741 0.644142 11.2272 0.59983L17.7235 0.00873677ZM11.4161 2.67875L2.08761 12.0072L7.99278 17.9124L17.3213 8.58392L17.9116 2.08838L11.4161 2.67875Z" fill="currentColor"/>
</svg>
