<svg width="20" height="20" viewBox="0 0 20 20" fill="none" xmlns="http://www.w3.org/2000/svg">
<path d="M11.8274 0.257387C12.5383 0.0305651 13.404 -0.0942181 14.3466 0.0862323C15.2971 0.268254 16.2505 0.745917 17.1506 1.60738C18.0508 2.46901 18.5497 3.38228 18.7398 4.29219C18.9282 5.19427 18.7979 6.02218 18.561 6.70253C18.3255 7.37851 17.9777 7.92995 17.6965 8.30673C17.5546 8.49684 17.4249 8.64765 17.3283 8.75436C17.2799 8.80786 17.2392 8.85084 17.2087 8.88197C17.1937 8.89733 17.1815 8.91073 17.1717 8.92045L17.1516 8.9397C17.151 8.9399 17.1386 8.9293 16.3845 8.20748L17.1506 8.94071L11.0052 14.8228C10.998 14.8295 10.9881 14.8377 10.9777 14.8471C10.9568 14.8658 10.9287 14.8902 10.8952 14.918C10.8286 14.9731 10.7368 15.0452 10.6222 15.1236C10.3961 15.2781 10.0593 15.4739 9.64031 15.6076C9.21668 15.7428 8.68643 15.8216 8.10292 15.7099C7.51166 15.5967 6.94173 15.3023 6.4248 14.8076C5.90768 14.3126 5.60036 13.7665 5.48205 13.2003C5.36538 12.642 5.44674 12.1352 5.58786 11.7298C5.72753 11.3288 5.93212 11.0064 6.09362 10.79C6.17579 10.6799 6.25171 10.5915 6.30947 10.5277C6.33845 10.4957 6.36292 10.4687 6.38248 10.4487C6.39213 10.4388 6.40091 10.4303 6.40787 10.4234L12.5532 4.54132C12.9763 4.13633 13.6632 4.13633 14.0864 4.54132C14.509 4.9463 14.5092 5.60292 14.0864 6.00778L7.96536 11.8665L7.94632 11.8858C7.92632 11.9079 7.89374 11.9461 7.85638 11.9962C7.77865 12.1004 7.69544 12.2366 7.64371 12.3851C7.59344 12.5294 7.57983 12.6644 7.60668 12.7932C7.63203 12.9145 7.7079 13.1028 7.9569 13.3411C8.20576 13.5792 8.40158 13.6521 8.52826 13.6763C8.66295 13.7021 8.80375 13.688 8.95467 13.6399C9.11 13.5903 9.25302 13.5108 9.36203 13.4363C9.4143 13.4006 9.45434 13.3693 9.47736 13.3502L9.489 13.3411L15.6269 7.46513C15.6399 7.45187 15.6624 7.42932 15.6915 7.39728C15.7503 7.33225 15.8365 7.23085 15.9338 7.10054C16.1313 6.83579 16.3576 6.46988 16.5051 6.04627C16.6512 5.62678 16.7139 5.17099 16.6152 4.6983C16.518 4.23339 16.2502 3.67963 15.6185 3.07486C14.9864 2.46992 14.4071 2.21388 13.9213 2.12085C13.4274 2.02631 12.9513 2.08533 12.513 2.22516C12.0705 2.36638 11.6881 2.58299 11.4115 2.77205C11.2757 2.86495 11.1705 2.94762 11.1026 3.00397C11.069 3.03184 11.0445 3.05331 11.0306 3.06574L4.89164 8.94172C4.88726 8.94606 4.87918 8.9549 4.86731 8.96704C4.8435 8.9914 4.80491 9.03074 4.75621 9.08452C4.65846 9.19248 4.51849 9.3563 4.36154 9.56659C4.04431 9.99173 3.67374 10.5867 3.43043 11.2852C3.18858 11.9797 3.07891 12.7566 3.2495 13.573C3.41856 14.3817 3.87771 15.3025 4.8927 16.274C5.90774 17.2455 6.86969 17.6851 7.7146 17.8468C8.56732 18.01 9.37836 17.905 10.1037 17.6737C10.8335 17.4408 11.4551 17.0861 11.8993 16.7824C12.1192 16.6321 12.2912 16.4983 12.404 16.4047C12.4602 16.3581 12.5013 16.3211 12.5267 16.2983C12.5394 16.287 12.5487 16.2792 12.5532 16.275L17.1506 11.8736C17.5736 11.469 18.2596 11.469 18.6827 11.8736C19.1058 12.2786 19.1058 12.9361 18.6827 13.3411L14.0864 17.7405L13.3192 17.0073C14.0648 17.7209 14.0852 17.7406 14.0853 17.7415L14.0599 17.7648C14.0468 17.7769 14.0289 17.7928 14.007 17.8124C13.9629 17.8519 13.9012 17.9064 13.8229 17.9714C13.6665 18.1012 13.4421 18.2765 13.1595 18.4697C12.5982 18.8534 11.783 19.3244 10.7894 19.6414C9.79117 19.9599 8.59098 20.1296 7.28925 19.8804C5.97954 19.6297 4.64276 18.9687 3.35954 17.7405C2.07645 16.5123 1.38681 15.2327 1.12488 13.9791C0.8646 12.7332 1.04186 11.5844 1.37459 10.629C1.70583 9.67804 2.19792 8.89757 2.59878 8.3604C2.80053 8.09011 2.98385 7.87608 3.11936 7.72642C3.18727 7.65142 3.24315 7.59142 3.28442 7.54919C3.30488 7.52826 3.32148 7.51109 3.33415 7.49855L3.35954 7.47526C3.36388 7.4787 3.41783 7.52902 4.12665 8.20748L3.35954 7.47526L9.489 1.60738L10.255 2.34061C9.54658 1.6625 9.49261 1.61154 9.489 1.60738L9.51016 1.58814C9.52035 1.5787 9.53413 1.56623 9.55037 1.55168C9.58289 1.52256 9.6278 1.4836 9.68369 1.43724C9.79523 1.34472 9.95366 1.2207 10.1524 1.0848C10.546 0.815738 11.1214 0.482695 11.8274 0.257387Z" fill="currentColor"/>
</svg>
