<svg width="20" height="20" viewBox="0 0 20 20" fill="none" xmlns="http://www.w3.org/2000/svg">
<path fill-rule="evenodd" clip-rule="evenodd" d="M7 3C10.3137 3 13 5.68629 13 9C13 10.7572 12.2438 12.3372 11.04 13.4346C12.7844 14.2151 14 15.9653 14 18C14 19.0357 13.2128 19.887 12.2041 19.9893L12 20H2L1.7959 19.9893C0.854346 19.8938 0.1062 19.1457 0.0107422 18.2041L0 18C0 15.9656 1.21509 14.2154 2.95898 13.4346C1.75549 12.3373 1 10.757 1 9C1 5.68629 3.68629 3 7 3ZM7 5C4.79086 5 3 6.79086 3 9C3 10.5882 3.92541 11.9606 5.2666 12.6064C5.681 12.806 5.99983 13.1954 6 13.6553V14C6 14.5523 5.55228 15 5 15C3.34315 15 2 16.3431 2 18H12C12 16.3431 10.6569 15 9 15C8.44772 15 8 14.5523 8 14V13.6553C8.00017 13.1954 8.319 12.806 8.7334 12.6064C10.0746 11.9606 11 10.5882 11 9C11 6.79086 9.20914 5 7 5Z" fill="currentColor"/>
<path d="M13.5 0C16.5376 0 19 2.46243 19 5.5C19 7.28582 18.1478 8.87082 16.8291 9.875C18.7256 10.9859 20 13.0439 20 15.4004L19.9922 15.5635C19.9158 16.3166 19.3166 16.9158 18.5635 16.9922L18.4004 17H14.915C14.7944 16.2817 14.5471 15.6072 14.1953 15H17.9814C17.8237 13.2495 16.9848 11.7821 15.499 11.2236C14.955 11.0192 14.5 10.5548 14.5 9.97363C14.5001 9.41492 14.9304 8.96813 15.4238 8.70605C16.4896 8.13988 17 6.90513 17 5.5C17 3.567 15.433 2 13.5 2C12.4592 2 11.5239 2.45371 10.8828 3.1748C10.7576 3.0912 10.6287 3.01307 10.498 2.9375C10.4729 2.92296 10.4482 2.90779 10.4229 2.89355C10.3718 2.86489 10.3204 2.83698 10.2686 2.80957C10.2185 2.78308 10.1679 2.75773 10.1172 2.73242C10.0798 2.7138 10.0426 2.69473 10.0049 2.67676C9.92372 2.63807 9.84164 2.60105 9.75879 2.56543C9.71388 2.54615 9.66843 2.52813 9.62305 2.50977C9.57054 2.4885 9.51797 2.46728 9.46484 2.44727C9.42209 2.43117 9.37909 2.41566 9.33594 2.40039C9.28127 2.38103 9.22618 2.36276 9.1709 2.34473C9.12963 2.33127 9.08847 2.31739 9.04688 2.30469C9.04097 2.30288 9.03521 2.30062 9.0293 2.29883C10.0273 0.907478 11.6571 0 13.5 0Z" fill="currentColor"/>
</svg>
