<svg width="18" height="18" viewBox="0 0 18 18" fill="none" xmlns="http://www.w3.org/2000/svg">
<path d="M14.9997 0.000320293C15.5517 0.000485106 15.9995 0.448277 15.9997 1.00032V4.00032C15.9997 4.5525 15.5518 5.00016 14.9997 5.00032H11.9997C11.4474 5.00032 10.9997 4.55261 10.9997 4.00032C10.9998 3.44818 11.4475 3.00032 11.9997 3.00032H12.6022C11.7193 2.47058 10.7248 2.1369 9.68619 2.0345C8.07473 1.87579 6.45743 2.28054 5.11099 3.18001C3.76463 4.07962 2.77162 5.41863 2.30142 6.96809C1.83133 8.51779 1.91317 10.1829 2.53287 11.679C3.15262 13.1752 4.27162 14.4107 5.69986 15.1741C7.12796 15.9374 8.77672 16.1814 10.3649 15.8656C11.9531 15.5496 13.3835 14.6925 14.4108 13.4408C15.4379 12.189 15.9997 10.6196 15.9997 9.00032C15.9998 8.44818 16.4475 8.00032 16.9997 8.00032C17.5517 8.00049 17.9995 8.44828 17.9997 9.00032C17.9997 11.0824 17.2775 13.1008 15.9567 14.7103C14.6359 16.3196 12.7974 17.4212 10.7555 17.8275C8.71352 18.2337 6.5937 17.9192 4.75748 16.9378C2.92124 15.9563 1.48206 14.3682 0.685211 12.4447C-0.111528 10.5211 -0.21699 8.38045 0.38736 6.38802C0.991835 4.39563 2.26849 2.67366 3.99966 1.51692C5.73075 0.360425 7.80965 -0.160688 9.8815 0.043289C11.3636 0.18931 12.7762 0.701285 13.9997 1.51888V1.00032C13.9998 0.448176 14.4475 0.000320293 14.9997 0.000320293Z" fill="#F0F0F0"/>
</svg>
