<svg width="20" height="20" viewBox="0 0 20 20" fill="none" xmlns="http://www.w3.org/2000/svg">
<path d="M2 9.00045C2.55228 9.00045 3 9.44817 3 10.0005C3.00009 11.4773 3.46752 12.9165 4.33496 14.1118C5.20249 15.307 6.42594 16.1979 7.83008 16.6557C9.23405 17.1135 10.7472 17.1156 12.1523 16.6616C13.1883 16.3268 14.126 15.7551 14.8965 15.0005H13C12.4479 15.0005 12.0002 14.5525 12 14.0005C12 13.4482 12.4477 13.0005 13 13.0005H17C17.0346 13.0005 17.0688 13.0019 17.1025 13.0053C17.5729 13.0533 17.9472 13.4275 17.9951 13.8979C17.9985 13.9315 18 13.966 18 14.0005V18.0005C17.9998 18.5525 17.5521 19.0005 17 19.0005C16.4479 19.0005 16.0002 18.5525 16 18.0005V16.7055C15.0685 17.5386 13.9698 18.1754 12.7676 18.5639C10.9607 19.1479 9.01531 19.1457 7.20996 18.5571C5.40461 17.9684 3.83122 16.8234 2.71582 15.2866C1.6006 13.7498 1.00009 11.8992 1 10.0005C1 9.44817 1.44772 9.00045 2 9.00045Z" fill="#F0F0F0"/>
<path d="M7.20898 1.44479C9.01695 0.854974 10.9653 0.852745 12.7744 1.43893C14.5835 2.0252 16.1609 3.16943 17.2793 4.70749C18.3976 6.24558 19 8.09878 19 10.0005C18.9998 10.5524 18.552 11.0003 18 11.0005C17.448 11.0003 17.0002 10.5524 17 10.0005C17 8.52141 16.5319 7.07955 15.6621 5.88327C14.7923 4.68712 13.5651 3.79728 12.1582 3.34128C10.7511 2.88534 9.23532 2.88738 7.8291 3.34616C6.42286 3.80501 5.19757 4.69685 4.33008 5.89499C4.30257 5.93297 4.2718 5.96752 4.24023 6.00045H6C6.55228 6.00045 7 6.44817 7 7.00045C6.99977 7.55254 6.55214 8.00045 6 8.00045H2C1.96541 8.00045 1.93115 7.999 1.89746 7.99557C1.42717 7.94769 1.05296 7.57322 1.00488 7.10299C1.00147 7.06943 1.00001 7.03492 1 7.00045V3.00046C1 2.44817 1.44772 2.00046 2 2.00046C2.55228 2.00046 3 2.44817 3 3.00046V4.34616C4.09117 2.99522 5.55163 1.98555 7.20898 1.44479Z" fill="#F0F0F0"/>
</svg>
