<svg width="20" height="20" viewBox="0 0 20 20" fill="none" xmlns="http://www.w3.org/2000/svg">
<path d="M10 4C10.5523 4 11 4.44772 11 5V9.73047L12.8516 12.9395C13.1277 13.4177 12.9636 14.0295 12.4854 14.3057C12.0072 14.5815 11.3962 14.4175 11.1201 13.9395L9.16895 10.5605C9.16325 10.5507 9.15864 10.5403 9.15332 10.5303C9.05677 10.3764 9 10.195 9 10V5C9 4.44772 9.44772 4 10 4Z" fill="#F0F0F0"/>
<path fill-rule="evenodd" clip-rule="evenodd" d="M10 0C15.5228 0 20 4.47715 20 10C20 15.5228 15.5228 20 10 20C4.47715 20 0 15.5228 0 10C0 4.47715 4.47715 0 10 0ZM10 2C5.58172 2 2 5.58172 2 10C2 14.4183 5.58172 18 10 18C14.4183 18 18 14.4183 18 10C18 5.58172 14.4183 2 10 2Z" fill="#F0F0F0"/>
</svg>
