<svg width="24" height="24" viewBox="0 0 24 24" fill="none" xmlns="http://www.w3.org/2000/svg">
<path fill-rule="evenodd" clip-rule="evenodd" d="M8 4C9.65685 4 11 5.34315 11 7V15L10.9961 15.1543C10.9184 16.6883 9.68834 17.9184 8.1543 17.9961L8 18H7L6.8457 17.9961C5.31166 17.9184 4.08163 16.6883 4.00391 15.1543L4 15V7C4 5.34315 5.34315 4 7 4H8ZM7 6C6.44772 6 6 6.44772 6 7V15C6 15.5523 6.44772 16 7 16H8C8.55228 16 9 15.5523 9 15V7C9 6.44771 8.55228 6 8 6H7Z" fill="currentColor"/>
<path fill-rule="evenodd" clip-rule="evenodd" d="M17 4C18.6569 4 20 5.34315 20 7V11L19.9961 11.1543C19.9184 12.6883 18.6883 13.9184 17.1543 13.9961L17 14H16L15.8457 13.9961C14.3117 13.9184 13.0816 12.6883 13.0039 11.1543L13 11V7C13 5.34315 14.3431 4 16 4H17ZM16 6C15.4477 6 15 6.44772 15 7V11C15 11.5523 15.4477 12 16 12H17C17.5523 12 18 11.5523 18 11V7C18 6.44771 17.5523 6 17 6H16Z" fill="currentColor"/>
<path fill-rule="evenodd" clip-rule="evenodd" d="M19 0C21.7614 0 24 2.23858 24 5V19C24 21.7614 21.7614 24 19 24H5L4.74316 23.9932C2.10111 23.8595 0 21.6753 0 19V5C0 2.32472 2.10111 0.140528 4.74316 0.00683594L5 0H19ZM5 2C3.34315 2 2 3.34315 2 5V19C2 20.6569 3.34315 22 5 22H19C20.6569 22 22 20.6569 22 19V5C22 3.34315 20.6569 2 19 2H5Z" fill="currentColor"/>
</svg>
