<svg width="24" height="24" viewBox="0 0 24 24" fill="none" xmlns="http://www.w3.org/2000/svg">
<path d="M7 17C7.55228 17 8 17.4477 8 18C8 18.5523 7.55228 19 7 19C6.44772 19 6 18.5523 6 18C6 17.4477 6.44772 17 7 17Z" fill="#F0F0F0"/>
<path d="M12 17C12.5523 17 13 17.4477 13 18C13 18.5523 12.5523 19 12 19C11.4477 19 11 18.5523 11 18C11 17.4477 11.4477 17 12 17Z" fill="#F0F0F0"/>
<path d="M17 17C17.5523 17 18 17.4477 18 18C18 18.5523 17.5523 19 17 19C16.4477 19 16 18.5523 16 18C16 17.4477 16.4477 17 17 17Z" fill="#F0F0F0"/>
<path d="M7 13C7.55228 13 8 13.4477 8 14C8 14.5523 7.55228 15 7 15C6.44772 15 6 14.5523 6 14C6 13.4477 6.44772 13 7 13Z" fill="#F0F0F0"/>
<path d="M12 13C12.5523 13 13 13.4477 13 14C13 14.5523 12.5523 15 12 15C11.4477 15 11 14.5523 11 14C11 13.4477 11.4477 13 12 13Z" fill="#F0F0F0"/>
<path d="M17 13C17.5523 13 18 13.4477 18 14C18 14.5523 17.5523 15 17 15C16.4477 15 16 14.5523 16 14C16 13.4477 16.4477 13 17 13Z" fill="#F0F0F0"/>
<path fill-rule="evenodd" clip-rule="evenodd" d="M16 0C16.5523 0 17 0.447715 17 1V2H18C21.3137 2 24 4.68629 24 8V18C24 21.3137 21.3137 24 18 24H6C2.78979 24 0.168429 21.4789 0.0078125 18.3086L0 18V8C0 4.68629 2.68629 2 6 2H7V1C7 0.447715 7.44772 0 8 0C8.55228 0 9 0.447715 9 1V2H15V1C15 0.447715 15.4477 0 16 0ZM2 18C2 20.2091 3.79086 22 6 22H18C20.2091 22 22 20.2091 22 18V10H2V18ZM6 4C3.79086 4 2 5.79086 2 8H22C22 5.79086 20.2091 4 18 4H17V6C17 6.55228 16.5523 7 16 7C15.4477 7 15 6.55228 15 6V4H9V6C9 6.55228 8.55228 7 8 7C7.44772 7 7 6.55228 7 6V4H6Z" fill="#F0F0F0"/>
</svg>
