<svg width="24" height="24" viewBox="0 0 24 24" fill="none" xmlns="http://www.w3.org/2000/svg">
<path d="M20.2061 0.00488281C22.3194 0.112115 24 1.85996 24 4V14.0264C24 16.1664 22.3194 17.9143 20.2061 18.0215L20 18.0264H8.74023L8.53223 18.0322C7.49878 18.0859 6.52271 18.5379 5.81348 19.2988L1.73145 23.6797L1.61035 23.791C1.02017 24.2542 0.12882 23.9032 0.0126953 23.1621L0 22.998V4C0 1.79086 1.79086 6.44256e-08 4 0H20L20.2061 0.00488281ZM4 2C2.89543 2 2 2.89543 2 4V20.457L4.35059 17.9355C5.48549 16.7178 7.07565 16.0264 8.74023 16.0264H20C21.1046 16.0264 22 15.1309 22 14.0264V4C22 2.89543 21.1046 2 20 2H4ZM14 10.0146C14.5523 10.0146 15 10.4643 15 11.0166C14.9997 11.5687 14.5521 12.0176 14 12.0176H6C5.44787 12.0176 5.00025 11.5687 5 11.0166C5 10.4643 5.44772 10.0146 6 10.0146H14ZM18 6.00879C18.5523 6.00879 19 6.45846 19 7.01074C18.9997 7.56281 18.5521 8.01172 18 8.01172H6C5.44787 8.01172 5.00026 7.56281 5 7.01074C5 6.45846 5.44772 6.00879 6 6.00879H18Z" fill="currentColor"/>
</svg>
