<svg width="24" height="24" viewBox="0 0 24 24" fill="none" xmlns="http://www.w3.org/2000/svg">
<path d="M3 17H8C9.10457 17 10 17.8954 10 19V21C10 22.1046 9.10457 23 8 23H3C1.89543 23 1 22.1046 1 21V19C1 17.8954 1.89543 17 3 17ZM16 11H21C22.1046 11 23 11.8954 23 13V21C23 22.1046 22.1046 23 21 23H16C14.8954 23 14 22.1046 14 21V13C14 11.8954 14.8954 11 16 11ZM3 1H8C9.10457 1 10 1.89543 10 3V11C10 12.1046 9.10457 13 8 13H3C1.89543 13 1 12.1046 1 11V3C1 1.89543 1.89543 1 3 1ZM16 1H21C22.1046 1 23 1.89543 23 3V5C23 6.10457 22.1046 7 21 7H16C14.8954 7 14 6.10457 14 5V3C14 1.89543 14.8954 1 16 1Z" stroke="#F0F0F0" stroke-width="2"/>
</svg>
