<svg width="24" height="24" viewBox="0 0 24 24" fill="none" xmlns="http://www.w3.org/2000/svg">
<path fill-rule="evenodd" clip-rule="evenodd" d="M12.0004 7C14.7616 7.00026 17.0004 9.23874 17.0004 12C17.0004 14.7613 14.7616 16.9997 12.0004 17C9.23899 17 7.00041 14.7614 7.00041 12C7.00041 9.23858 9.23899 7 12.0004 7ZM12.0004 9C10.3436 9 9.00041 10.3431 9.00041 12C9.00041 13.6569 10.3436 15 12.0004 15C13.657 14.9997 15.0004 13.6567 15.0004 12C15.0004 10.3433 13.657 9.00026 12.0004 9Z" fill="currentColor"/>
<path fill-rule="evenodd" clip-rule="evenodd" d="M11.9985 3C19.9243 3.00004 22.9657 8.79198 23.7446 10.709C24.0823 11.5405 24.0823 12.4595 23.7446 13.291C22.9657 15.208 19.9243 21 11.9985 21C4.07293 20.9997 1.03216 15.2079 0.253343 13.291C-0.084447 12.4595 -0.0844482 11.5405 0.253343 10.709L0.426194 10.3066C1.43083 8.09103 4.56794 3.00028 11.9985 3ZM11.9985 5C5.3012 5.0003 2.77207 9.82222 2.10588 11.4619C1.96434 11.8106 1.96434 12.1894 2.10588 12.5381C2.77208 14.1778 5.3012 18.9997 11.9985 19C18.696 19 21.2248 14.1779 21.891 12.5381C22.0151 12.2328 22.031 11.9047 21.9379 11.5938L21.891 11.4619C21.2248 9.82212 18.696 5.00004 11.9985 5Z" fill="currentColor"/>
</svg>