<svg width="24" height="24" viewBox="0 0 24 24" fill="none" xmlns="http://www.w3.org/2000/svg">
<path fill-rule="evenodd" clip-rule="evenodd" d="M12.108 8C14.3209 8 16.1148 9.79086 16.1148 12C16.1148 14.2091 14.3209 16 12.108 16C9.89509 15.9999 8.10109 14.2091 8.10109 12C8.10109 9.7909 9.89509 8.00007 12.108 8ZM12.108 10C11.0016 10.0001 10.1045 10.8955 10.1045 12C10.1045 13.1045 11.0016 13.9999 12.108 14C13.2144 14 14.1114 13.1046 14.1114 12C14.1114 10.8954 13.2144 10 12.108 10Z" fill="currentColor"/>
<path fill-rule="evenodd" clip-rule="evenodd" d="M12.51 0C13.8878 0 15.0054 1.11489 15.0055 2.49023L15.0114 2.66797C15.1309 4.42193 17.0094 5.50413 18.5908 4.73047L18.7473 4.64746C19.9404 3.95994 21.4664 4.36778 22.1555 5.55859L22.6652 6.44043C23.3542 7.63159 22.9457 9.15509 21.7525 9.84277L21.6008 9.93652C20.0906 10.9493 20.1417 13.2275 21.7525 14.1562C22.9457 14.8442 23.3542 16.3683 22.6652 17.5596L22.1555 18.4414L22.0166 18.6553C21.3262 19.6104 20.0514 19.9515 18.9752 19.4688L18.7473 19.3525C17.0842 18.3943 15.0055 19.5927 15.0055 21.5098L14.9928 21.7637C14.8652 23.0197 13.8019 24 12.51 24H11.4897C10.1981 23.9997 9.13554 23.0196 9.00792 21.7637L8.9952 21.5098C8.9952 19.5925 6.91565 18.3939 5.25245 19.3525L5.02549 19.4688C3.94913 19.9516 2.67349 19.6107 1.98316 18.6553L1.84523 18.4414L1.33459 17.5596C0.688806 16.443 1.00787 15.0336 2.03305 14.2949L2.24826 14.1562C3.85891 13.2273 3.90943 10.9491 2.39891 9.93652L2.24826 9.84277C1.05517 9.15507 0.645734 7.63151 1.33459 6.44043L1.84523 5.55859C2.53421 4.36799 4.05941 3.96035 5.25245 4.64746C6.86369 5.57592 8.86589 4.48032 8.98933 2.66797L8.9952 2.49023C8.99534 1.11502 10.1122 0.000215497 11.4897 0H12.51ZM11.4897 2C11.2186 2.00022 10.9988 2.21959 10.9986 2.49023C10.9986 5.94692 7.2502 8.10724 4.2517 6.37988C4.01665 6.24463 3.71534 6.32434 3.57965 6.55859L3.06999 7.44043C2.9345 7.67486 3.01528 7.97491 3.24998 8.11035C6.24931 9.83886 6.24747 14.1604 3.24998 15.8887C3.01482 16.0245 2.93458 16.3253 3.06999 16.5596L3.57965 17.4404C3.71529 17.6749 4.01577 17.7553 4.25073 17.6201C7.2497 15.8915 10.9986 18.0531 10.9986 21.5098C10.9989 21.7804 11.2188 21.9997 11.4897 22H12.51C12.7812 22 13.0018 21.7806 13.0021 21.5098C13.0021 18.0533 16.7502 15.8922 19.749 17.6201C19.984 17.7555 20.2843 17.6749 20.4201 17.4404L20.9307 16.5596C21.0664 16.3251 20.9853 16.0244 20.7498 15.8887C17.7525 14.1603 17.7513 9.83871 20.7507 8.11035C20.9856 7.97492 21.0664 7.67492 20.9307 7.44043L20.4201 6.55859C20.2842 6.32454 19.984 6.24449 19.749 6.37988C16.7505 8.10732 13.0021 5.94695 13.0021 2.49023C13.0019 2.21946 12.7813 2 12.51 2H11.4897Z" fill="currentColor"/>
</svg>
