<svg width="24" height="24" viewBox="0 0 24 24" fill="none" xmlns="http://www.w3.org/2000/svg">
<path d="M3 19C4.10457 19 5 19.8954 5 21C5 22.1046 4.10457 23 3 23C1.89543 23 1 22.1046 1 21C1 19.8954 1.89543 19 3 19ZM12 19C13.1046 19 14 19.8954 14 21C14 22.1046 13.1046 23 12 23C10.8954 23 10 22.1046 10 21C10 19.8954 10.8954 19 12 19ZM21 19C22.1046 19 23 19.8954 23 21C23 22.1046 22.1046 23 21 23C19.8954 23 19 22.1046 19 21C19 19.8954 19.8954 19 21 19ZM3 10C4.10457 10 5 10.8954 5 12C5 13.1046 4.10457 14 3 14C1.89543 14 1 13.1046 1 12C1 10.8954 1.89543 10 3 10ZM12 10C13.1046 10 14 10.8954 14 12C14 13.1046 13.1046 14 12 14C10.8954 14 10 13.1046 10 12C10 10.8954 10.8954 10 12 10ZM21 10C22.1046 10 23 10.8954 23 12C23 13.1046 22.1046 14 21 14C19.8954 14 19 13.1046 19 12C19 10.8954 19.8954 10 21 10ZM3 1C4.10457 1 5 1.89543 5 3C5 4.10457 4.10457 5 3 5C1.89543 5 1 4.10457 1 3C1 1.89543 1.89543 1 3 1ZM12 1C13.1046 1 14 1.89543 14 3C14 4.10457 13.1046 5 12 5C10.8954 5 10 4.10457 10 3C10 1.89543 10.8954 1 12 1ZM21 1C22.1046 1 23 1.89543 23 3C23 4.10457 22.1046 5 21 5C19.8954 5 19 4.10457 19 3C19 1.89543 19.8954 1 21 1Z" stroke="currentColor" stroke-width="2"/>
</svg>
