<svg width="24" height="24" viewBox="0 0 24 24" fill="none" xmlns="http://www.w3.org/2000/svg">
<path d="M7 18C7.55228 18 8 18.4477 8 19C8 19.5523 7.55228 20 7 20C6.44772 20 6 19.5523 6 19C6 18.4477 6.44772 18 7 18Z" fill="currentColor"/>
<path d="M17 18C17.5523 18 18 18.4477 18 19C18 19.5523 17.5523 20 17 20H10C9.44772 20 9 19.5523 9 19C9 18.4477 9.44772 18 10 18H17Z" fill="currentColor"/>
<path d="M7 14C7.55228 14 8 14.4477 8 15C8 15.5523 7.55228 16 7 16C6.44772 16 6 15.5523 6 15C6 14.4477 6.44772 14 7 14Z" fill="currentColor"/>
<path d="M17 14C17.5523 14 18 14.4477 18 15C18 15.5523 17.5523 16 17 16H10C9.44772 16 9 15.5523 9 15C9 14.4477 9.44772 14 10 14H17Z" fill="currentColor"/>
<path d="M7 10C7.55228 10 8 10.4477 8 11C8 11.5523 7.55228 12 7 12C6.44772 12 6 11.5523 6 11C6 10.4477 6.44772 10 7 10Z" fill="currentColor"/>
<path d="M17 10C17.5523 10 18 10.4477 18 11C18 11.5523 17.5523 12 17 12H10C9.44772 12 9 11.5523 9 11C9 10.4477 9.44772 10 10 10H17Z" fill="currentColor"/>
<path fill-rule="evenodd" clip-rule="evenodd" d="M12 0C13.8638 0 15.43 1.27477 15.874 3H19C20.6569 3 22 4.34315 22 6V21C22 22.6051 20.7394 23.9158 19.1543 23.9961L19 24H5L4.8457 23.9961C3.31166 23.9184 2.08163 22.6883 2.00391 21.1543L2 21V6C2 4.34315 3.34315 3 5 3H8.12598C8.57002 1.27477 10.1362 0 12 0ZM5 5C4.44771 5 4 5.44772 4 6V21C4 21.5523 4.44772 22 5 22H19C19.5523 22 20 21.5523 20 21V6C20 5.44771 19.5523 5 19 5H18V7C18 7.51768 17.6067 7.94379 17.1025 7.99512L17 8H7L6.89746 7.99512C6.42703 7.94722 6.05278 7.57297 6.00488 7.10254L6 7V5H5ZM12 2C11.2601 2 10.6155 2.40267 10.2695 3C10.188 3.14086 10.123 3.29246 10.0771 3.45215C10.0478 3.5555 10.0261 3.66204 10.0137 3.77148C10.005 3.84647 10 3.92267 10 4C10 5.10457 10.8954 6 12 6C13.1046 6 14 5.10457 14 4C14 3.92263 13.994 3.8465 13.9854 3.77148C13.9729 3.66199 13.9513 3.55555 13.9219 3.45215C13.876 3.29255 13.812 3.14078 13.7305 3C13.3845 2.40267 12.7399 2 12 2Z" fill="currentColor"/>
</svg>
