<svg width="24" height="24" viewBox="0 0 24 24" fill="none" xmlns="http://www.w3.org/2000/svg">
<path d="M11.9999 2.00005C18.075 2.00008 22.9999 6.92493 22.9999 13C22.9998 19.0751 18.0749 24 11.9999 24C5.92477 24 0.99993 19.0751 0.999864 13C0.999864 6.92491 5.92473 2.00005 11.9999 2.00005ZM11.9999 4.00005C7.0293 4.00005 2.99986 8.02948 2.99986 13C2.99993 17.9706 7.02934 22 11.9999 22C16.9704 22 20.9998 17.9705 20.9999 13C20.9999 8.0295 16.9704 4.00008 11.9999 4.00005ZM11.9999 6.00005C12.5521 6.00008 12.9999 6.44778 12.9999 7.00005V12.586L15.5145 15.1006C15.9048 15.4912 15.905 16.1242 15.5145 16.5147C15.124 16.9051 14.491 16.905 14.1004 16.5147L11.3221 13.7364C11.317 13.7312 11.3125 13.725 11.3075 13.7198C11.1184 13.5379 10.9999 13.2832 10.9999 13V7.00005C10.9999 6.44776 11.4476 6.00005 11.9999 6.00005ZM4.24205 0.707078C4.63258 0.316554 5.26657 0.316554 5.65709 0.707078C6.04728 1.09753 6.04726 1.73068 5.65709 2.12114L2.12096 5.6563C1.73043 6.04682 1.09742 6.04682 0.706895 5.6563C0.316614 5.26575 0.316452 4.63268 0.706895 4.24223L4.24205 0.707078ZM18.3846 0.707078C18.7751 0.316563 19.4082 0.316583 19.7987 0.707078L23.3338 4.24223C23.7244 4.63276 23.7244 5.26577 23.3338 5.6563C22.9433 6.04682 22.3103 6.04682 21.9198 5.6563L18.3846 2.12114C17.9941 1.73061 17.9941 1.09759 18.3846 0.707078Z" fill="#F0F0F0"/>
</svg>
