<svg width="24" height="24" viewBox="0 0 24 24" fill="none" xmlns="http://www.w3.org/2000/svg">
<path d="M15.9999 5.00006C16.5522 5.00006 16.9999 5.44777 16.9999 6.00006V17.5088L18.2167 16.3038C18.6248 15.8994 19.2863 15.8994 19.6943 16.3038C20.1019 16.7081 20.102 17.3634 19.6943 17.7676L16.7392 20.6963C16.3567 21.0754 15.7511 21.0992 15.3408 20.7676L15.2617 20.6963L12.3056 17.7676C11.898 17.3634 11.8981 16.7081 12.3056 16.3038C12.7136 15.8994 13.3751 15.8994 13.7831 16.3038L14.9999 17.5088V6.00006C14.9999 5.44779 15.4477 5.00009 15.9999 5.00006Z" fill="#F0F0F0"/>
<path d="M7.26166 3.30377C7.644 2.92489 8.24878 2.90031 8.65912 3.2315L8.7392 3.30377L11.6943 6.23248C12.1019 6.63678 12.1019 7.29201 11.6943 7.69635C11.2863 8.10074 10.6248 8.10074 10.2167 7.69635L8.99994 6.49029V18.0001C8.99991 18.5523 8.55221 19.0001 7.99994 19.0001C7.44771 19 6.99998 18.5523 6.99994 18.0001V6.49029L5.78315 7.69635C5.37512 8.10068 4.71362 8.10072 4.30561 7.69635C3.89808 7.29203 3.89802 6.63677 4.30561 6.23248L7.26166 3.30377Z" fill="#F0F0F0"/>
</svg>
