<svg width="24" height="24" viewBox="0 0 24 24" fill="none" xmlns="http://www.w3.org/2000/svg">
<path fill-rule="evenodd" clip-rule="evenodd" d="M11.1543 13.0039C12.7394 13.0842 14 14.3949 14 16V17C14 18.6051 12.7394 19.9158 11.1543 19.9961L11 20H7C5.39489 20 4.08421 18.7394 4.00391 17.1543L4 17V16C4 14.3431 5.34315 13 7 13H11L11.1543 13.0039ZM7 15C6.44771 15 6 15.4477 6 16V17C6 17.5523 6.44772 18 7 18H11C11.5523 18 12 17.5523 12 17V16C12 15.4477 11.5523 15 11 15H7Z" fill="white"/>
<path fill-rule="evenodd" clip-rule="evenodd" d="M17 4C18.6569 4 20 5.34315 20 7V8C20 9.65685 18.6569 11 17 11H7L6.8457 10.9961C5.31166 10.9184 4.08163 9.68834 4.00391 8.1543L4 8V7C4 5.34315 5.34315 4 7 4H17ZM7 6C6.44771 6 6 6.44772 6 7V8C6 8.55228 6.44772 9 7 9H17C17.5523 9 18 8.55228 18 8V7C18 6.44772 17.5523 6 17 6H7Z" fill="white"/>
<path fill-rule="evenodd" clip-rule="evenodd" d="M20.2061 0.00488281C22.3194 0.112115 24 1.85996 24 4V20L23.9951 20.2061C23.8913 22.2512 22.2512 23.8913 20.2061 23.9951L20 24H4C1.85996 24 0.112115 22.3194 0.00488281 20.2061L0 20V4C2.57706e-07 1.79086 1.79086 6.44256e-08 4 0H20L20.2061 0.00488281ZM4 2C2.89543 2 2 2.89543 2 4V20C2 21.1046 2.89543 22 4 22H20C21.1046 22 22 21.1046 22 20V4C22 2.89543 21.1046 2 20 2H4Z" fill="white"/>
</svg>
