<svg width="24" height="24" viewBox="0 0 24 24" fill="none" xmlns="http://www.w3.org/2000/svg">
<path fill-rule="evenodd" clip-rule="evenodd" d="M5 0C2.23858 0 0 2.23858 0 5V19C0 21.7614 2.23858 24 5 24H19C21.7614 24 24 21.7614 24 19V5C24 2.23858 21.7614 0 19 0H5ZM5 2C3.34315 2 2 3.34315 2 5V19C2 20.6569 3.34315 22 5 22H19C20.6569 22 22 20.6569 22 19V5C22 3.34315 20.6569 2 19 2H5Z" fill="currentColor"/>
<rect x="5" y="6" width="10" height="3" rx="1.5" fill="currentColor"/>
<rect x="9" y="10.5" width="10" height="3" rx="1.5" fill="currentColor"/>
<rect x="5" y="15" width="7" height="3" rx="1.5" fill="currentColor"/>
</svg>
